<svg xmlns="http://www.w3.org/2000/svg" viewBox="0 0 132.3 132.3" height="500" width="500" version="1"><path d="m36.7 74.7a29.4 29.4 0 0 1 5.2-38.7 29.4 29.4 0 0 1 39.1 0.6" style="fill:none;stroke-linecap:round;stroke-width:2;stroke:#57a8c6"/><path d="m43.8 68.7a29.4 29.4 0 0 1 5.2-38.7 29.4 29.4 0 0 1 39.1 0.6" style="fill:none;stroke-linecap:round;stroke-width:2;stroke:#3f9cbe"/><path d="m50.8 64.1a29.4 29.4 0 0 1 5.2-38.7 29.4 29.4 0 0 1 39.1 0.6" style="fill:none;stroke-linecap:round;stroke-width:5;stroke:#0f83ae"/><path d="m71.3 66.8a29.4 29.4 0 0 1 2.4 2.5 29.4 29.4 0 0 1-44.6 38.4 29.4 29.4 0 0 1-2.1-2.7" style="fill:none;stroke-linecap:round;stroke-width:2;stroke:#f95dd8"/><path d="m78.3 60.7a29.4 29.4 0 0 1 2.4 2.5 29.4 29.4 0 0 1-44.6 38.4 29.4 29.4 0 0 1-2.1-2.7" style="fill:none;stroke-linecap:round;stroke-width:2;stroke:#f846d2"/><path d="m85.4 53.1a29.4 29.4 0 0 1 2.4 2.5 29.4 29.4 0 0 1-44.6 38.4 29.4 29.4 0 0 1-2.1-2.7" style="fill:none;stroke-linecap:round;stroke-width:5;stroke:#f618c7"/></svg>