<?xml version="1.0" encoding="UTF-8" standalone="no"?>
<svg
   xmlns:dc="http://purl.org/dc/elements/1.1/"
   xmlns:cc="http://creativecommons.org/ns#"
   xmlns:rdf="http://www.w3.org/1999/02/22-rdf-syntax-ns#"
   xmlns:svg="http://www.w3.org/2000/svg"
   xmlns="http://www.w3.org/2000/svg"
   xmlns:sodipodi="http://sodipodi.sourceforge.net/DTD/sodipodi-0.dtd"
   xmlns:inkscape="http://www.inkscape.org/namespaces/inkscape"
   inkscape:version="1.0 (4035a4fb49, 2020-05-01)"
   inkscape:export-ydpi="300"
   inkscape:export-xdpi="300"
   inkscape:export-filename="C:\Users\lol\Desktop\logo_reduced_spiral-dark.png"
   sodipodi:docname="logo_reduced_spiral-dark.svg"
   id="svg5"
   viewBox="0 0 132.29 132.29"
   version="1.1"
   height="500"
   width="500">
  <metadata
     id="metadata11">
    <rdf:RDF>
      <cc:Work
         rdf:about="">
        <dc:format>image/svg+xml</dc:format>
        <dc:type
           rdf:resource="http://purl.org/dc/dcmitype/StillImage" />
      </cc:Work>
    </rdf:RDF>
  </metadata>
  <defs
     id="defs9" />
  <sodipodi:namedview
     inkscape:current-layer="svg5"
     inkscape:window-maximized="1"
     inkscape:window-y="-9"
     inkscape:window-x="-9"
     inkscape:cy="250"
     inkscape:cx="250"
     inkscape:zoom="1.47"
     showgrid="false"
     id="namedview7"
     inkscape:window-height="1018"
     inkscape:window-width="1920"
     inkscape:pageshadow="2"
     inkscape:pageopacity="0"
     guidetolerance="10"
     gridtolerance="10"
     objecttolerance="10"
     borderopacity="1"
     bordercolor="#666666"
     pagecolor="#ffffff" />
  <path
     style="fill:#f0f0f0;stroke-linecap:round;stroke-width:1.1954;stroke:#f0f0f0"
     d="m130.4 66.146a64.256 64.256 0 0 1-64.256 64.256 64.256 64.256 0 0 1-64.256-64.256 64.256 64.256 0 0 1 64.256-64.256 64.256 64.256 0 0 1 64.256 64.256"
     id="background" />
  <path
     id="path3"
     style="color-rendering:auto;color:#000000;dominant-baseline:auto;fill:#181935;font-feature-settings:normal;font-variant-alternates:normal;font-variant-caps:normal;font-variant-east-asian:normal;font-variant-ligatures:normal;font-variant-numeric:normal;font-variant-position:normal;font-variation-settings:normal;image-rendering:auto;inline-size:0;isolation:auto;mix-blend-mode:normal;shape-margin:0;shape-padding:0;shape-rendering:auto;solid-color:#000000;stop-color:#000000;text-decoration-color:#000000;text-decoration-line:none;text-decoration-style:solid;text-indent:0;text-orientation:mixed;text-transform:none;white-space:normal"
     d="m281.34 75.453c-27.796 0.18689-55.567 9.9083-78.002 29.244-4.7668 4.1084-9.133 8.5231-13.105 13.186-3.5058 2.4017-6.9131 5.0135-10.199 7.8457-44.366 38.237-53.106 103.72-20.322 152.26a4.4027 4.4027 0 0 0 6.1113 1.1816 4.4027 4.4027 0 0 0 1.1816-6.1113c-26.572-39.34-23.67-90.578 5.0664-126.45-16.653 37.109-14.024 81.523 10.037 117.14a9.5668 9.5668 0 0 0 13.287 2.5762 9.5668 9.5668 0 0 0 2.5684-13.281c-28.882-42.76-21.221-100.17 17.865-133.86 3.9626-3.4153 8.1204-6.4688 12.43-9.1738 34.164-8.9984 71.802-0.74199 99.406 24.572a4.4027 4.4027 0 0 0 6.2226-0.27344 4.4027 4.4027 0 0 0-0.27343-6.2148c-21.583-19.793-48.889-29.946-76.344-30.369-0.16404-0.0025-0.32814-1.21e-4 -0.49219-2e-3 32.37-8.3527 67.927-0.4403 94.08 23.543a9.5668 9.5668 0 0 0 13.516-0.58984 9.5668 9.5668 0 0 0-0.58984-13.518c-22.533-20.663-51.065-31.255-79.754-31.697-0.89653-0.01381-1.7928-0.01775-2.6894-0.01172zm45.363 119.72a9.5668 9.5668 0 0 0-7.0703 3.0996 9.5668 9.5668 0 0 0 0.58203 13.518c2.9291 2.6861 5.7023 5.5443 8.2969 8.5547 29.802 34.676 32.176 83.474 9.084 120.21 7.6059-34.361-0.49666-71.764-25.184-100.46v-8e-3c-2.9513-3.4243-6.1019-6.6653-9.4336-9.7207a4.4027 4.4027 0 0 0-3.1367-1.1602v2e-3a4.4027 4.4027 0 0 0-3.0859 1.4238 4.4027 4.4027 0 0 0 0.27343 6.2227c3.0779 2.8226 5.9826 5.8209 8.709 8.9844 28.034 32.592 32.958 77.171 16.273 113.86-1.3657 1.3149-2.7705 2.6042-4.2246 3.8574-42.56 36.681-106.5 31.982-143.23-10.533-2.5918-3.0077-5.0042-6.1669-7.2266-9.457a9.5668 9.5668 0 0 0-13.287-2.5762 9.5668 9.5668 0 0 0-2.5684 13.287c2.6431 3.913 5.509 7.6654 8.5918 11.242l8e-3 8e-3c32.414 37.515 83.069 50.18 127.63 36.221-44.477 32.523-107.09 25.945-143.74-16.488-2.7236-3.1607-5.2603-6.4781-7.5957-9.9356a4.4027 4.4027 0 0 0-6.1113-1.1894 4.4027 4.4027 0 0 0-1.1894 6.1113c2.53 3.7457 5.2795 7.3476 8.2305 10.771h8e-3c41.661 48.241 114.66 53.615 162.94 12.002 4.4427-3.8291 8.5183-7.9255 12.232-12.242 6.2008-3.6357 12.163-7.8745 17.797-12.73 50.387-43.427 56.097-119.74 12.732-170.18v-8e-3l-6e-3 -8e-3c-3.0831-3.5772-6.3749-6.9644-9.8555-10.156a9.5668 9.5668 0 0 0-6.4453-2.5176z"
     transform="scale(.26458)" />
</svg>
